<?xml version="1.0" encoding="utf-8"?>
<!-- Generator: Adobe Illustrator 22.0.0, SVG Export Plug-In . SVG Version: 6.00 Build 0)  -->
<svg version="1.1" id="Layer_1" xmlns="http://www.w3.org/2000/svg" xmlns:xlink="http://www.w3.org/1999/xlink" x="0px" y="0px"
	 viewBox="0 0 216.4 232" style="enable-background:new 0 0 216.4 232;" xml:space="preserve">
<style type="text/css">
	.st0{display:none;fill:#FFFFFF;}
	.st1{fill:#FFFFFF;}
</style>
<path class="st0" d="M107.9,0C78.2,0.2,49.7,3.5,33,11.1c0,0-33,14.8-33,65.1c0,11.5-0.2,25.3,0.1,39.9c1.2,49.2,9,97.7,54.5,109.8
	c21,5.6,39,6.7,53.5,5.9c26.3-1.5,41.1-9.4,41.1-9.4l-0.9-19.1c0,0-18.8,5.9-39.9,5.2c-20.9-0.7-43-2.3-46.4-27.9
	c-0.3-2.3-0.5-4.7-0.5-7.2c0,0,20.5,5,46.6,6.2c15.9,0.7,30.8-0.9,46-2.7c29.1-3.5,54.4-21.4,57.6-37.7c5-25.8,4.6-62.9,4.6-62.9
	c0-50.3-33-65.1-33-65.1C166.8,3.5,138.3,0.2,108.6,0H107.9z M74.3,39.3c12.4,0,21.7,4.7,27.9,14.2l6,10.1l6-10.1
	c6.2-9.5,15.5-14.2,27.9-14.2c10.7,0,19.3,3.8,25.9,11.1c6.4,7.3,9.5,17.2,9.5,29.7V141h-24.1V81.9c0-12.5-5.2-18.8-15.7-18.8
	c-11.6,0-17.4,7.5-17.4,22.4v32.4h-24V85.4c0-14.8-5.8-22.4-17.4-22.4C68.3,63.1,63,69.4,63,81.9V141H38.9V80.1
	c0-12.5,3.2-22.4,9.5-29.7C55,43.1,63.6,39.3,74.3,39.3z"/>
<g>
	<g>
		<g>
			<path class="st1" d="M101,98.5c0,0-21.4-45.5-46.5-33.7c0,0-54.3,28.7,5,142.7c-4.1-7.8-10.6-13.9-15.8-20.9
				C22.4,157.5,8.5,107.7,25.4,73.8c7.3-14.7,24-25.8,41.1-19.1C85.4,62,93,81.5,101,98.5z"/>
			<path class="st1" d="M147.1,142.2c0,0,37.8-9.8,43.2,11.1c0,0,9.7,46.7-87.9,67.7c6.7-1.4,13.5-0.5,20.3-0.9
				c28-1.7,64.7-18,76.6-44.9c5.2-11.7,3.5-27.1-8.9-34C176.7,133.5,161.2,138.5,147.1,142.2z"/>
		</g>
	</g>
	<circle class="st1" cx="30.1" cy="28.8" r="18.1"/>
</g>
</svg>
