<?xml version="1.0" encoding="utf-8"?>
<!-- Generator: Adobe Illustrator 22.0.0, SVG Export Plug-In . SVG Version: 6.00 Build 0)  -->
<svg version="1.1" id="Layer_1" xmlns="http://www.w3.org/2000/svg" xmlns:xlink="http://www.w3.org/1999/xlink" x="0px" y="0px"
	 viewBox="0 0 713.4 175.9" style="enable-background:new 0 0 713.4 175.9;" xml:space="preserve">
<style type="text/css">
	.st0{display:none;fill:#3088D4;}
	.st1{display:none;fill:#FFFFFF;}
	.st2{fill:#FFFFFF;}
</style>
<path class="st0" d="M160.6,105.4c-2.4,12.4-21.6,26-43.6,28.6c-11.5,1.4-22.8,2.6-34.9,2.1c-19.7-0.9-35.3-4.7-35.3-4.7
	c0,1.9,0.1,3.8,0.4,5.5c2.6,19.5,19.3,20.6,35.2,21.2c16,0.5,30.3-3.9,30.3-3.9l0.7,14.5c0,0-11.2,6-31.1,7.1
	c-11,0.6-24.7-0.3-40.6-4.5C7,162.1,1.1,125.3,0.2,88c-0.3-11.1-0.1-21.5-0.1-30.3c0-38.2,25-49.3,25-49.3C37.7,2.6,59.3,0.2,81.8,0
	h0.6c22.5,0.2,44.1,2.6,56.7,8.4c0,0,25,11.2,25,49.3C164,57.7,164.4,85.9,160.6,105.4"/>
<path class="st1" d="M34.7,48.5c0-5.6,4.5-10.1,10.1-10.1c5.6,0,10.1,4.5,10.1,10.1c0,5.6-4.5,10.1-10.1,10.1
	C39.2,58.5,34.7,54,34.7,48.5 M178.9,60.7v46.2h-18.3V62.1c0-9.5-4-14.2-11.9-14.2c-8.8,0-13.2,5.7-13.2,16.9v24.5h-18.2V64.8
	c0-11.3-4.4-16.9-13.2-16.9c-8,0-11.9,4.8-11.9,14.2v44.8H73.8V60.7c0-9.4,2.4-16.9,7.2-22.5c5-5.5,11.5-8.4,19.6-8.4
	c9.4,0,16.5,3.6,21.1,10.8l4.6,7.6l4.6-7.6c4.7-7.2,11.8-10.8,21.1-10.8c8.1,0,14.6,2.8,19.6,8.4C176.5,43.8,178.9,51.3,178.9,60.7
	 M241.9,83.7c3.8-4,5.6-9,5.6-15.1s-1.8-11.1-5.6-14.9c-3.6-4-8.3-5.9-13.8-5.9c-5.6,0-10.2,1.9-13.8,5.9c-3.6,3.8-5.5,8.9-5.5,14.9
	s1.8,11.1,5.5,15.1c3.6,3.8,8.3,5.8,13.8,5.8C233.7,89.4,238.3,87.5,241.9,83.7 M247.5,31.6h18v73.9h-18v-8.7
	c-5.5,7.2-13,10.8-22.8,10.8c-9.4,0-17.3-3.7-24.1-11.2c-6.6-7.5-9.9-16.8-9.9-27.8c0-10.8,3.4-20.1,9.9-27.6
	c6.7-7.5,14.7-11.4,24.1-11.4c9.8,0,17.3,3.5,22.8,10.8C247.5,40.4,247.5,31.6,247.5,31.6z M326.3,67.3c5.3,4,8,9.6,7.8,16.7
	c0,7.5-2.7,13.4-8.1,17.6c-5.5,4-12,6.1-20,6.1c-14.4,0-24.2-5.9-29.4-17.6l15.7-9.3c2.1,6.4,6.7,9.6,13.7,9.6
	c6.4,0,9.7-2.1,9.7-6.4c0-3.1-4.2-5.9-12.7-8.1c-3.2-0.9-5.9-1.8-8-2.5c-2.9-1.2-5.5-2.5-7.6-4.1c-5.2-4-7.8-9.3-7.8-16.1
	c0-7.2,2.5-13,7.6-17.1c5.2-4.3,11.5-6.4,19-6.4c12,0,20.8,5.2,26.6,15.7l-15.4,8.9c-2.2-5-6-7.5-11.2-7.5c-5.5,0-8.1,2.1-8.1,6.1
	c0,3.1,4.2,5.9,12.7,8.1C317.3,62.2,322.5,64.4,326.3,67.3 M383.6,50h-15.8v30.7c0,3.7,1.4,5.9,4.1,6.9c2,0.7,5.9,0.9,11.8,0.6v17.3
	c-12.2,1.5-21,0.3-26.2-3.7c-5.2-3.8-7.7-10.9-7.7-21.1V50h-12.2V31.6h12.2V16.7l18-5.8v20.7h15.8C383.6,31.6,383.6,50,383.6,50z
	 M441.1,83.2c3.6-3.8,5.5-8.7,5.5-14.6s-1.8-10.8-5.5-14.6c-3.6-3.8-8.1-5.8-13.6-5.8c-5.5,0-9.9,1.9-13.6,5.8
	c-3.5,4-5.3,8.9-5.3,14.6c0,5.8,1.8,10.6,5.3,14.6c3.6,3.8,8.1,5.8,13.6,5.8C433,89,437.5,87.1,441.1,83.2 M401.3,96.4
	c-7.1-7.5-10.6-16.7-10.6-27.8c0-10.9,3.5-20.1,10.6-27.6s15.9-11.4,26.3-11.4c10.4,0,19.2,3.8,26.3,11.4
	c7.1,7.5,10.8,16.8,10.8,27.6c0,10.9-3.6,20.2-10.8,27.8c-7.1,7.5-15.8,11.2-26.3,11.2C417.1,107.6,408.4,103.9,401.3,96.4
	 M524.9,83.7c3.6-4,5.5-9,5.5-15.1s-1.8-11.1-5.5-14.9c-3.6-4-8.3-5.9-13.8-5.9c-5.6,0-10.2,1.9-14,5.9c-3.6,3.8-5.5,8.9-5.5,14.9
	s1.8,11.1,5.5,15.1c3.8,3.8,8.5,5.8,14,5.8C516.7,89.4,521.3,87.5,524.9,83.7 M530.4,2.1h18v103.5h-18v-8.7
	c-5.3,7.2-12.9,10.8-22.7,10.8c-9.4,0-17.5-3.7-24.2-11.2c-6.6-7.5-9.9-16.8-9.9-27.8c0-10.8,3.4-20.1,9.9-27.6
	c6.7-7.5,14.8-11.4,24.2-11.4c9.8,0,17.3,3.5,22.7,10.8C530.4,40.4,530.4,2.1,530.4,2.1z M611.8,83.2c3.6-3.8,5.5-8.7,5.5-14.6
	s-1.8-10.8-5.5-14.6c-3.6-3.8-8.1-5.8-13.6-5.8c-5.5,0-9.9,1.9-13.6,5.8c-3.5,4-5.3,8.9-5.3,14.6c0,5.8,1.8,10.6,5.3,14.6
	c3.6,3.8,8.1,5.8,13.6,5.8C603.7,89,608.2,87.1,611.8,83.2 M571.9,96.4c-7.1-7.5-10.6-16.7-10.6-27.8c0-10.9,3.5-20.1,10.6-27.6
	c7.1-7.5,15.9-11.4,26.3-11.4c10.4,0,19.2,3.8,26.3,11.4s10.8,16.8,10.8,27.6c0,10.9-3.6,20.2-10.8,27.8
	c-7.1,7.5-15.8,11.2-26.3,11.2C587.7,107.6,579.1,103.9,571.9,96.4 M713.4,60.2v45.4h-18v-43c0-4.9-1.3-8.6-3.8-11.4
	c-2.4-2.5-5.7-3.8-10.1-3.8c-10.2,0-15.4,6.1-15.4,18.3v39.9h-18V31.6h18v8.3c4.3-6.9,11.2-10.3,20.8-10.3c7.7,0,14,2.7,18.9,8.1
	C710.8,43.2,713.4,50.6,713.4,60.2"/>
<g>
	<path class="st2" d="M51.7,44.1h35.8c7.8,0,13.6,1.9,17.5,5.6c3.9,3.7,5.8,9,5.8,15.8c0,7-2.1,12.5-6.3,16.5
		c-4.2,4-10.7,5.9-19.4,5.9H73.4v25.9H51.7V44.1z M73.4,73.8h5.3c4.2,0,7.1-0.7,8.7-2.2c1.7-1.4,2.5-3.3,2.5-5.5
		c0-2.2-0.7-4-2.2-5.6c-1.5-1.5-4.2-2.3-8.2-2.3h-6.1V73.8z"/>
	<path class="st2" d="M136.8,79.7l-18.5-1.9c0.7-3.2,1.7-5.8,3-7.6c1.3-1.9,3.2-3.5,5.7-4.8c1.8-1,4.2-1.7,7.3-2.3
		c3.1-0.5,6.5-0.8,10.1-0.8c5.8,0,10.5,0.3,14,1c3.5,0.6,6.4,2,8.8,4.1c1.6,1.4,2.9,3.4,3.9,6.1c1,2.6,1.4,5.1,1.4,7.5v22.3
		c0,2.4,0.1,4.2,0.5,5.6c0.3,1.3,1,3.1,2,5.2h-18.2c-0.7-1.3-1.2-2.3-1.4-3s-0.4-1.8-0.7-3.2c-2.5,2.4-5.1,4.2-7.6,5.2
		c-3.4,1.4-7.4,2.1-11.9,2.1c-6,0-10.6-1.4-13.7-4.2c-3.1-2.8-4.7-6.2-4.7-10.3c0-3.8,1.1-7,3.4-9.5c2.2-2.5,6.4-4.3,12.5-5.5
		c7.3-1.5,12-2.5,14.1-3.1c2.2-0.6,4.4-1.4,6.8-2.3c0-2.4-0.5-4-1.5-5c-1-1-2.7-1.4-5.2-1.4c-3.2,0-5.5,0.5-7.1,1.5
		C138.6,76,137.6,77.5,136.8,79.7z M153.6,89.9c-2.7,1-5.4,1.8-8.3,2.5c-3.9,1-6.4,2.1-7.5,3.1c-1.1,1-1.6,2.2-1.6,3.6
		c0,1.5,0.5,2.8,1.6,3.7c1.1,1,2.6,1.4,4.7,1.4c2.2,0,4.2-0.5,6-1.6s3.2-2.3,3.9-3.8c0.8-1.5,1.2-3.5,1.2-5.9V89.9z"/>
	<path class="st2" d="M184.3,63.3h18.1v8.3c1.7-3.6,3.5-6,5.4-7.4c1.9-1.3,4.1-2,6.9-2c2.9,0,6,0.9,9.4,2.7l-6,13.8
		c-2.3-1-4.1-1.4-5.4-1.4c-2.5,0-4.5,1-5.9,3.1c-2,2.9-3,8.5-3,16.5v16.9h-19.4V63.3z"/>
	<path class="st2" d="M255.5,44.1v19.2h10.6v14.2h-10.6v17.9c0,2.2,0.2,3.6,0.6,4.3c0.6,1.1,1.7,1.6,3.3,1.6c1.4,0,3.4-0.4,6-1.2
		l1.4,13.4c-4.8,1-9.3,1.6-13.4,1.6c-4.8,0-8.4-0.6-10.6-1.9s-4-3.1-5.1-5.6c-1.1-2.5-1.6-6.6-1.6-12.2V77.5H229V63.3h7.1v-9.3
		L255.5,44.1z"/>
	<path class="st2" d="M275.4,63.3h18v8.2c2.7-3.4,5.4-5.8,8.2-7.2c2.8-1.4,6.1-2.2,10.1-2.2c5.4,0,9.5,1.6,12.6,4.8
		c3,3.2,4.5,8.1,4.5,14.8v32.1h-19.4V86.1c0-3.2-0.6-5.4-1.8-6.7c-1.2-1.3-2.8-2-4.9-2c-2.3,0-4.2,0.9-5.7,2.7
		c-1.5,1.8-2.2,5-2.2,9.6v24.2h-19.3V63.3z"/>
	<path class="st2" d="M396.4,93.4h-38.8c0.3,3.1,1.2,5.4,2.5,6.9c1.9,2.2,4.3,3.3,7.3,3.3c1.9,0,3.7-0.5,5.4-1.4
		c1-0.6,2.2-1.7,3.4-3.2l19.1,1.8c-2.9,5.1-6.4,8.7-10.6,10.9c-4.1,2.2-10,3.3-17.7,3.3c-6.7,0-11.9-0.9-15.8-2.8s-7-4.9-9.5-9
		c-2.5-4.1-3.8-8.9-3.8-14.5c0-7.9,2.5-14.3,7.6-19.2c5.1-4.9,12-7.3,20.9-7.3c7.2,0,12.9,1.1,17.1,3.3c4.2,2.2,7.4,5.4,9.6,9.5
		c2.2,4.2,3.3,9.6,3.3,16.2V93.4z M376.7,84.1c-0.4-3.7-1.4-6.4-3-8c-1.6-1.6-3.8-2.4-6.4-2.4c-3.1,0-5.5,1.2-7.4,3.7
		c-1.2,1.5-1.9,3.8-2.2,6.8H376.7z"/>
	<path class="st2" d="M405.5,63.3h18.1v8.3c1.7-3.6,3.5-6,5.4-7.4c1.9-1.3,4.1-2,6.9-2c2.9,0,6,0.9,9.4,2.7l-6,13.8
		c-2.3-1-4.1-1.4-5.4-1.4c-2.5,0-4.5,1-5.9,3.1c-2,2.9-3,8.5-3,16.5v16.9h-19.4V63.3z"/>
	<path class="st2" d="M482.5,44.1h32c6.3,0,11.4,0.9,15.3,2.6s7.1,4.2,9.6,7.4c2.5,3.2,4.4,6.9,5.5,11.2c1.1,4.2,1.7,8.7,1.7,13.5
		c0,7.4-0.8,13.2-2.5,17.3c-1.7,4.1-4,7.5-7.1,10.3c-3,2.8-6.2,4.6-9.7,5.5c-4.7,1.3-9,1.9-12.8,1.9h-32V44.1z M504.1,59.9V98h5.3
		c4.5,0,7.7-0.5,9.6-1.5c1.9-1,3.4-2.7,4.5-5.2c1.1-2.5,1.6-6.5,1.6-12.1c0-7.4-1.2-12.4-3.6-15.2c-2.4-2.7-6.4-4.1-12-4.1H504.1z"
		/>
	<path class="st2" d="M554.3,88.7c0-7.7,2.6-14,7.8-19c5.2-5,12.2-7.5,21.1-7.5c10.1,0,17.7,2.9,22.9,8.8c4.2,4.7,6.2,10.5,6.2,17.4
		c0,7.8-2.6,14.1-7.7,19.1c-5.2,5-12.3,7.4-21.4,7.4c-8.1,0-14.7-2.1-19.7-6.2C557.4,103.7,554.3,97,554.3,88.7z M573.7,88.7
		c0,4.5,0.9,7.8,2.7,10c1.8,2.2,4.1,3.2,6.9,3.2c2.8,0,5.1-1.1,6.9-3.2c1.8-2.1,2.7-5.5,2.7-10.2c0-4.4-0.9-7.6-2.7-9.8
		c-1.8-2.1-4-3.2-6.7-3.2c-2.8,0-5.2,1.1-7,3.3C574.6,80.9,573.7,84.2,573.7,88.7z"/>
	<path class="st2" d="M656.7,63.3h18.1V111l0,2.2c0,3.2-0.7,6.2-2,9.1c-1.3,2.9-3.1,5.2-5.4,7c-2.2,1.8-5.1,3.1-8.5,3.9
		c-3.4,0.8-7.4,1.2-11.8,1.2c-10.1,0-17.1-1.5-20.9-4.6c-3.8-3-5.7-7.1-5.7-12.2c0-0.6,0-1.5,0.1-2.6l18.8,2.1
		c0.5,1.7,1.2,2.9,2.2,3.6c1.4,1,3.2,1.5,5.4,1.5c2.8,0,4.9-0.7,6.3-2.2c1.4-1.5,2.1-4.1,2.1-7.8v-7.7c-1.9,2.3-3.8,3.9-5.7,4.9
		c-3,1.6-6.2,2.4-9.6,2.4c-6.8,0-12.2-2.9-16.4-8.8c-2.9-4.2-4.4-9.7-4.4-16.6c0-7.9,1.9-13.8,5.7-18c3.8-4.1,8.8-6.2,14.9-6.2
		c3.9,0,7.2,0.7,9.7,2s4.9,3.5,7.2,6.6V63.3z M638.5,87.8c0,3.6,0.8,6.3,2.3,8.1s3.6,2.6,6.1,2.6c2.4,0,4.4-0.9,6.1-2.7
		c1.6-1.8,2.4-4.6,2.4-8.2c0-3.7-0.9-6.5-2.6-8.4c-1.7-1.9-3.8-2.9-6.3-2.9s-4.4,0.9-5.9,2.7C639.3,80.7,638.5,83.7,638.5,87.8z"/>
</g>
</svg>
